# xmcd CD database file
#
# Track frame offsets:
#	150
#	21195
#	38225
#	55812
#	72512
#	94662
#	120180
#	138240
#	154200
#	169910
#
# Disc length: 2518 seconds
#
# Revision: 0
# Processed by: cddbd v1.4PL0 Copyright (c) Steve Scherf et al.
# Submitted via: CDex 1.40Beta5
#
DISCID=8009d40a
DTITLE=U. P. Wilson - Best of - The Texas Blues Guitar Tornado
DYEAR=1900
DGENRE=Blues
TTITLE0=Made Up My Mind
TTITLE1=Shakin' Dem Bones
TTITLE2=Boots and Shoes
TTITLE3=Walk That Walk
TTITLE4=Juicin'
TTITLE5=Take It Easy
TTITLE6=I Just Can't Help It
TTITLE7=Half Step
TTITLE8=Go Home With Me
TTITLE9=Bad Luck Woman
EXTD=ID3G:   0
EXTT0=
EXTT1=
EXTT2=
EXTT3=
EXTT4=
EXTT5=
EXTT6=
EXTT7=
EXTT8=
EXTT9=
PLAYORDER=
